<svg width="428" height="315" viewBox="0 0 428 315" fill="none" xmlns="http://www.w3.org/2000/svg">
<g clip-path="url(#clip0_5_24)">
<g filter="url(#filter0_f_5_24)">
<path d="M120.334 100.825L110.138 90.0762L120.923 80.443L130.43 90.0435L120.334 100.825Z" fill="#A584FF"/>
</g>
<g filter="url(#filter1_f_5_24)">
<path d="M110.138 90.0762L120.923 80.443L131.119 91.1914L120.334 100.825L110.138 90.0762Z" fill="#F0C6FF"/>
</g>
<g filter="url(#filter2_f_5_24)">
<path d="M19.9525 219.53L9.7569 208.781L20.5419 199.148L30.0487 208.749L19.9525 219.53Z" fill="#A584FF"/>
</g>
<g filter="url(#filter3_f_5_24)">
<path d="M9.7569 208.781L20.5419 199.148L30.7375 209.897L19.9525 219.53L9.7569 208.781Z" fill="#F0C6FF"/>
</g>
<g filter="url(#filter4_f_5_24)">
<path d="M292.091 29.53L281.895 18.7812L292.68 9.14801L302.187 18.7486L292.091 29.53Z" fill="#A584FF"/>
</g>
<g filter="url(#filter5_f_5_24)">
<path d="M281.895 18.7812L292.68 9.14801L302.876 19.8968L292.091 29.53L281.895 18.7812Z" fill="#F0C6FF"/>
</g>
<g filter="url(#filter6_f_5_24)">
<path d="M396.953 219.53L386.757 208.781L397.542 199.148L407.049 208.749L396.953 219.53Z" fill="#A584FF"/>
</g>
<g filter="url(#filter7_f_5_24)">
<path d="M386.757 208.781L397.542 199.148L407.738 209.897L396.953 219.53L386.757 208.781Z" fill="#F0C6FF"/>
</g>
<g filter="url(#filter8_f_5_24)">
<path d="M32.8878 57.382L41.3396 61.1818L39.8142 49.3783L32.8878 57.382Z" fill="#B2D1FF"/>
</g>
<g filter="url(#filter9_f_5_24)">
<path d="M32.8878 57.382L24.436 53.5822L39.8142 49.3783L32.8878 57.382Z" fill="#F0C6FF"/>
</g>
<g filter="url(#filter10_f_5_24)">
<path d="M388.888 285.382L397.34 289.182L395.814 277.378L388.888 285.382Z" fill="#B2D1FF"/>
</g>
<g filter="url(#filter11_f_5_24)">
<path d="M388.888 285.382L380.436 281.582L395.814 277.378L388.888 285.382Z" fill="#F0C6FF"/>
</g>
<g filter="url(#filter12_f_5_24)">
<path d="M228.423 293.456L220.533 298.53L225.127 289.601L228.423 293.456Z" fill="#B2D1FF"/>
</g>
<g filter="url(#filter13_f_5_24)">
<path d="M228.423 293.456L236.313 288.382L225.127 289.601L228.423 293.456Z" fill="#F0C6FF"/>
</g>
<g filter="url(#filter14_f_5_24)">
<path d="M15.4233 118.456L7.53345 123.53L12.1274 114.601L15.4233 118.456Z" fill="#B2D1FF"/>
</g>
<g filter="url(#filter15_f_5_24)">
<path d="M15.4233 118.456L23.3132 113.382L12.1274 114.601L15.4233 118.456Z" fill="#F0C6FF"/>
</g>
<g filter="url(#filter16_f_5_24)">
<path d="M410.423 118.456L402.533 123.53L407.127 114.601L410.423 118.456Z" fill="#B2D1FF"/>
</g>
<g filter="url(#filter17_f_5_24)">
<path d="M410.423 118.456L418.313 113.382L407.127 114.601L410.423 118.456Z" fill="#F0C6FF"/>
</g>
<g filter="url(#filter18_f_5_24)">
<path d="M194.888 23.382L203.34 27.1818L201.814 15.3783L194.888 23.382Z" fill="#B2D1FF"/>
</g>
<g filter="url(#filter19_f_5_24)">
<path d="M194.888 23.382L186.436 19.5822L201.814 15.3783L194.888 23.382Z" fill="#F0C6FF"/>
</g>
<g filter="url(#filter20_f_5_24)">
<path d="M129.563 268.216L120.925 277.37L130.125 286.095L138.828 277.29L129.563 268.216Z" fill="#A584FF"/>
</g>
<g filter="url(#filter21_f_5_24)">
<path d="M120.925 277.37L130.125 286.095L139.563 276.216L129.563 268.216L120.925 277.37Z" fill="#F0C6FF"/>
</g>
<g filter="url(#filter22_f_5_24)">
<path d="M292.091 169.53L281.895 158.781L292.68 149.148L302.187 158.749L292.091 169.53Z" fill="#A584FF"/>
</g>
<g filter="url(#filter23_f_5_24)">
<path d="M281.895 158.781L292.68 149.148L302.876 159.897L292.091 169.53L281.895 158.781Z" fill="#F0C6FF"/>
</g>
</g>
<defs>
<filter id="filter0_f_5_24" x="106.138" y="76.443" width="28.2919" height="28.3817" filterUnits="userSpaceOnUse" color-interpolation-filters="sRGB">
<feFlood flood-opacity="0" result="BackgroundImageFix"/>
<feBlend mode="normal" in="SourceGraphic" in2="BackgroundImageFix" result="shape"/>
<feGaussianBlur stdDeviation="2" result="effect1_foregroundBlur_5_24"/>
</filter>
<filter id="filter1_f_5_24" x="106.138" y="76.443" width="28.9804" height="28.3817" filterUnits="userSpaceOnUse" color-interpolation-filters="sRGB">
<feFlood flood-opacity="0" result="BackgroundImageFix"/>
<feBlend mode="normal" in="SourceGraphic" in2="BackgroundImageFix" result="shape"/>
<feGaussianBlur stdDeviation="2" result="effect1_foregroundBlur_5_24"/>
</filter>
<filter id="filter2_f_5_24" x="5.7569" y="195.148" width="28.2919" height="28.3817" filterUnits="userSpaceOnUse" color-interpolation-filters="sRGB">
<feFlood flood-opacity="0" result="BackgroundImageFix"/>
<feBlend mode="normal" in="SourceGraphic" in2="BackgroundImageFix" result="shape"/>
<feGaussianBlur stdDeviation="2" result="effect1_foregroundBlur_5_24"/>
</filter>
<filter id="filter3_f_5_24" x="5.7569" y="195.148" width="28.9805" height="28.3817" filterUnits="userSpaceOnUse" color-interpolation-filters="sRGB">
<feFlood flood-opacity="0" result="BackgroundImageFix"/>
<feBlend mode="normal" in="SourceGraphic" in2="BackgroundImageFix" result="shape"/>
<feGaussianBlur stdDeviation="2" result="effect1_foregroundBlur_5_24"/>
</filter>
<filter id="filter4_f_5_24" x="277.895" y="5.14801" width="28.2919" height="28.3817" filterUnits="userSpaceOnUse" color-interpolation-filters="sRGB">
<feFlood flood-opacity="0" result="BackgroundImageFix"/>
<feBlend mode="normal" in="SourceGraphic" in2="BackgroundImageFix" result="shape"/>
<feGaussianBlur stdDeviation="2" result="effect1_foregroundBlur_5_24"/>
</filter>
<filter id="filter5_f_5_24" x="277.895" y="5.14801" width="28.9804" height="28.3817" filterUnits="userSpaceOnUse" color-interpolation-filters="sRGB">
<feFlood flood-opacity="0" result="BackgroundImageFix"/>
<feBlend mode="normal" in="SourceGraphic" in2="BackgroundImageFix" result="shape"/>
<feGaussianBlur stdDeviation="2" result="effect1_foregroundBlur_5_24"/>
</filter>
<filter id="filter6_f_5_24" x="382.757" y="195.148" width="28.2919" height="28.3817" filterUnits="userSpaceOnUse" color-interpolation-filters="sRGB">
<feFlood flood-opacity="0" result="BackgroundImageFix"/>
<feBlend mode="normal" in="SourceGraphic" in2="BackgroundImageFix" result="shape"/>
<feGaussianBlur stdDeviation="2" result="effect1_foregroundBlur_5_24"/>
</filter>
<filter id="filter7_f_5_24" x="382.757" y="195.148" width="28.9805" height="28.3817" filterUnits="userSpaceOnUse" color-interpolation-filters="sRGB">
<feFlood flood-opacity="0" result="BackgroundImageFix"/>
<feBlend mode="normal" in="SourceGraphic" in2="BackgroundImageFix" result="shape"/>
<feGaussianBlur stdDeviation="2" result="effect1_foregroundBlur_5_24"/>
</filter>
<filter id="filter8_f_5_24" x="28.8878" y="45.3783" width="16.4518" height="19.8035" filterUnits="userSpaceOnUse" color-interpolation-filters="sRGB">
<feFlood flood-opacity="0" result="BackgroundImageFix"/>
<feBlend mode="normal" in="SourceGraphic" in2="BackgroundImageFix" result="shape"/>
<feGaussianBlur stdDeviation="2" result="effect1_foregroundBlur_5_24"/>
</filter>
<filter id="filter9_f_5_24" x="20.436" y="45.3783" width="23.3782" height="15.9998" filterUnits="userSpaceOnUse" color-interpolation-filters="sRGB">
<feFlood flood-opacity="0" result="BackgroundImageFix"/>
<feBlend mode="normal" in="SourceGraphic" in2="BackgroundImageFix" result="shape"/>
<feGaussianBlur stdDeviation="2" result="effect1_foregroundBlur_5_24"/>
</filter>
<filter id="filter10_f_5_24" x="384.888" y="273.378" width="16.4518" height="19.8035" filterUnits="userSpaceOnUse" color-interpolation-filters="sRGB">
<feFlood flood-opacity="0" result="BackgroundImageFix"/>
<feBlend mode="normal" in="SourceGraphic" in2="BackgroundImageFix" result="shape"/>
<feGaussianBlur stdDeviation="2" result="effect1_foregroundBlur_5_24"/>
</filter>
<filter id="filter11_f_5_24" x="376.436" y="273.378" width="23.3782" height="15.9998" filterUnits="userSpaceOnUse" color-interpolation-filters="sRGB">
<feFlood flood-opacity="0" result="BackgroundImageFix"/>
<feBlend mode="normal" in="SourceGraphic" in2="BackgroundImageFix" result="shape"/>
<feGaussianBlur stdDeviation="2" result="effect1_foregroundBlur_5_24"/>
</filter>
<filter id="filter12_f_5_24" x="216.533" y="285.601" width="15.8901" height="11.9288" filterUnits="userSpaceOnUse" color-interpolation-filters="sRGB">
<feFlood flood-opacity="0" result="BackgroundImageFix"/>
<feBlend mode="normal" in="SourceGraphic" in2="BackgroundImageFix" result="shape"/>
<feGaussianBlur stdDeviation="2" result="effect1_foregroundBlur_5_24"/>
</filter>
<filter id="filter13_f_5_24" x="221.127" y="284.382" width="19.186" height="13.0742" filterUnits="userSpaceOnUse" color-interpolation-filters="sRGB">
<feFlood flood-opacity="0" result="BackgroundImageFix"/>
<feBlend mode="normal" in="SourceGraphic" in2="BackgroundImageFix" result="shape"/>
<feGaussianBlur stdDeviation="2" result="effect1_foregroundBlur_5_24"/>
</filter>
<filter id="filter14_f_5_24" x="3.53345" y="110.601" width="15.8901" height="11.9288" filterUnits="userSpaceOnUse" color-interpolation-filters="sRGB">
<feFlood flood-opacity="0" result="BackgroundImageFix"/>
<feBlend mode="normal" in="SourceGraphic" in2="BackgroundImageFix" result="shape"/>
<feGaussianBlur stdDeviation="2" result="effect1_foregroundBlur_5_24"/>
</filter>
<filter id="filter15_f_5_24" x="8.12744" y="109.382" width="19.186" height="13.0742" filterUnits="userSpaceOnUse" color-interpolation-filters="sRGB">
<feFlood flood-opacity="0" result="BackgroundImageFix"/>
<feBlend mode="normal" in="SourceGraphic" in2="BackgroundImageFix" result="shape"/>
<feGaussianBlur stdDeviation="2" result="effect1_foregroundBlur_5_24"/>
</filter>
<filter id="filter16_f_5_24" x="398.533" y="110.601" width="15.8901" height="11.9288" filterUnits="userSpaceOnUse" color-interpolation-filters="sRGB">
<feFlood flood-opacity="0" result="BackgroundImageFix"/>
<feBlend mode="normal" in="SourceGraphic" in2="BackgroundImageFix" result="shape"/>
<feGaussianBlur stdDeviation="2" result="effect1_foregroundBlur_5_24"/>
</filter>
<filter id="filter17_f_5_24" x="403.127" y="109.382" width="19.186" height="13.0742" filterUnits="userSpaceOnUse" color-interpolation-filters="sRGB">
<feFlood flood-opacity="0" result="BackgroundImageFix"/>
<feBlend mode="normal" in="SourceGraphic" in2="BackgroundImageFix" result="shape"/>
<feGaussianBlur stdDeviation="2" result="effect1_foregroundBlur_5_24"/>
</filter>
<filter id="filter18_f_5_24" x="190.888" y="11.3783" width="16.4518" height="19.8035" filterUnits="userSpaceOnUse" color-interpolation-filters="sRGB">
<feFlood flood-opacity="0" result="BackgroundImageFix"/>
<feBlend mode="normal" in="SourceGraphic" in2="BackgroundImageFix" result="shape"/>
<feGaussianBlur stdDeviation="2" result="effect1_foregroundBlur_5_24"/>
</filter>
<filter id="filter19_f_5_24" x="182.436" y="11.3783" width="23.3782" height="15.9998" filterUnits="userSpaceOnUse" color-interpolation-filters="sRGB">
<feFlood flood-opacity="0" result="BackgroundImageFix"/>
<feBlend mode="normal" in="SourceGraphic" in2="BackgroundImageFix" result="shape"/>
<feGaussianBlur stdDeviation="2" result="effect1_foregroundBlur_5_24"/>
</filter>
<filter id="filter20_f_5_24" x="116.925" y="264.216" width="25.9032" height="25.8787" filterUnits="userSpaceOnUse" color-interpolation-filters="sRGB">
<feFlood flood-opacity="0" result="BackgroundImageFix"/>
<feBlend mode="normal" in="SourceGraphic" in2="BackgroundImageFix" result="shape"/>
<feGaussianBlur stdDeviation="2" result="effect1_foregroundBlur_5_24"/>
</filter>
<filter id="filter21_f_5_24" x="116.925" y="264.216" width="26.6378" height="25.8787" filterUnits="userSpaceOnUse" color-interpolation-filters="sRGB">
<feFlood flood-opacity="0" result="BackgroundImageFix"/>
<feBlend mode="normal" in="SourceGraphic" in2="BackgroundImageFix" result="shape"/>
<feGaussianBlur stdDeviation="2" result="effect1_foregroundBlur_5_24"/>
</filter>
<filter id="filter22_f_5_24" x="277.895" y="145.148" width="28.2919" height="28.3817" filterUnits="userSpaceOnUse" color-interpolation-filters="sRGB">
<feFlood flood-opacity="0" result="BackgroundImageFix"/>
<feBlend mode="normal" in="SourceGraphic" in2="BackgroundImageFix" result="shape"/>
<feGaussianBlur stdDeviation="2" result="effect1_foregroundBlur_5_24"/>
</filter>
<filter id="filter23_f_5_24" x="277.895" y="145.148" width="28.9804" height="28.3817" filterUnits="userSpaceOnUse" color-interpolation-filters="sRGB">
<feFlood flood-opacity="0" result="BackgroundImageFix"/>
<feBlend mode="normal" in="SourceGraphic" in2="BackgroundImageFix" result="shape"/>
<feGaussianBlur stdDeviation="2" result="effect1_foregroundBlur_5_24"/>
</filter>
<clipPath id="clip0_5_24">
<rect width="428" height="315" fill="white"/>
</clipPath>
</defs>
</svg>
